<svg width="484" height="122" viewBox="0 0 484 122" fill="none" xmlns="http://www.w3.org/2000/svg">
<path d="M449.936 93.696C444.902 93.696 440.507 92.672 436.752 90.624C433.083 88.576 430.224 85.504 428.176 81.408C426.214 77.312 425.232 72.1493 425.232 65.92V27.648H438.032V64.512C438.032 70.5707 439.355 75.136 442 78.208C444.646 81.28 448.443 82.816 453.392 82.816C456.72 82.816 459.707 82.0053 462.352 80.384C465.083 78.7627 467.216 76.416 468.752 73.344C470.288 70.272 471.056 66.5173 471.056 62.08V27.648H483.856V92.16H472.464L471.568 81.152C469.606 85.0773 466.747 88.1493 462.992 90.368C459.238 92.5867 454.886 93.696 449.936 93.696Z" fill="#161616"/>
<path d="M383.781 92.1601V27.6481H395.301L396.453 39.8081C397.904 36.9067 399.781 34.4747 402.085 32.5121C404.389 30.4641 407.077 28.8854 410.149 27.7761C413.307 26.6667 416.891 26.1121 420.901 26.1121V39.6801H416.293C413.648 39.6801 411.131 40.0214 408.741 40.7041C406.352 41.3014 404.219 42.3681 402.341 43.9041C400.549 45.4401 399.141 47.5307 398.117 50.1761C397.093 52.8214 396.581 56.1067 396.581 60.0321V92.1601H383.781Z" fill="#161616"/>
<path d="M338.736 93.696C333.702 93.696 329.307 92.672 325.552 90.624C321.883 88.576 319.024 85.504 316.976 81.408C315.014 77.312 314.032 72.1493 314.032 65.92V27.648H326.832V64.512C326.832 70.5707 328.155 75.136 330.8 78.208C333.446 81.28 337.243 82.816 342.192 82.816C345.52 82.816 348.507 82.0053 351.152 80.384C353.883 78.7627 356.016 76.416 357.552 73.344C359.088 70.272 359.856 66.5173 359.856 62.08V27.648H372.656V92.16H361.264L360.368 81.152C358.406 85.0773 355.547 88.1493 351.792 90.368C348.038 92.5867 343.686 93.696 338.736 93.696Z" fill="#161616"/>
<path d="M274.696 121.856C268.808 121.856 263.603 121.088 259.08 119.552C254.557 118.101 251.059 115.84 248.584 112.768C246.109 109.696 244.872 105.941 244.872 101.504C244.872 99.2001 245.384 96.8534 246.408 94.4641C247.432 92.1601 249.096 89.9414 251.4 87.8081C253.704 85.6747 256.819 83.7547 260.744 82.0481L267.912 87.8081C263.56 89.4294 260.616 91.3494 259.08 93.5681C257.629 95.8721 256.904 98.0907 256.904 100.224C256.904 102.784 257.672 104.917 259.208 106.624C260.744 108.331 262.835 109.611 265.48 110.464C268.211 111.317 271.283 111.744 274.696 111.744C278.024 111.744 280.925 111.275 283.4 110.336C285.875 109.397 287.795 108.075 289.16 106.368C290.525 104.661 291.208 102.656 291.208 100.352C291.208 97.6214 290.184 95.3174 288.136 93.4401C286.088 91.6481 282.163 90.5814 276.36 90.2401C271.496 89.8987 267.357 89.4294 263.944 88.8321C260.616 88.2347 257.757 87.5094 255.368 86.6561C253.064 85.8027 251.101 84.8641 249.48 83.8401C247.944 82.8161 246.621 81.7494 245.512 80.6401V77.6961L258.312 64.5121L268.68 68.0961L254.728 81.0241L257.416 75.2641C258.355 75.8614 259.251 76.4587 260.104 77.0561C260.957 77.5681 262.109 78.0374 263.56 78.4641C265.011 78.8907 266.973 79.2747 269.448 79.6161C271.923 79.9574 275.165 80.2987 279.176 80.6401C284.979 81.0667 289.629 82.0907 293.128 83.7121C296.712 85.3334 299.315 87.5094 300.936 90.2401C302.557 92.9707 303.368 96.2134 303.368 99.9681C303.368 103.637 302.344 107.136 300.296 110.464C298.333 113.792 295.219 116.523 290.952 118.656C286.771 120.789 281.352 121.856 274.696 121.856ZM274.696 72.3201C269.235 72.3201 264.584 71.2961 260.744 69.2481C256.989 67.2001 254.088 64.4267 252.04 60.9281C250.077 57.4294 249.096 53.5467 249.096 49.2801C249.096 44.9281 250.077 41.0454 252.04 37.6321C254.088 34.1334 257.032 31.3601 260.872 29.3121C264.712 27.1787 269.32 26.1121 274.696 26.1121C280.072 26.1121 284.637 27.1787 288.392 29.3121C292.232 31.3601 295.133 34.1334 297.096 37.6321C299.144 41.0454 300.168 44.9281 300.168 49.2801C300.168 53.5467 299.144 57.4294 297.096 60.9281C295.133 64.4267 292.232 67.2001 288.392 69.2481C284.637 71.2961 280.072 72.3201 274.696 72.3201ZM274.696 62.0801C278.877 62.0801 282.205 61.0134 284.68 58.8801C287.155 56.6614 288.392 53.4614 288.392 49.2801C288.392 45.0987 287.155 41.9414 284.68 39.8081C282.205 37.5894 278.877 36.4801 274.696 36.4801C270.515 36.4801 267.144 37.5894 264.584 39.8081C262.024 41.9414 260.744 45.0987 260.744 49.2801C260.744 53.4614 262.024 56.6614 264.584 58.8801C267.144 61.0134 270.515 62.0801 274.696 62.0801ZM285.192 37.7601L282.12 27.6481H308.616V36.4801L285.192 37.7601Z" fill="#161616"/>
<path d="M229.606 92.16C225.51 92.16 221.969 91.52 218.982 90.24C215.995 88.96 213.691 86.8267 212.07 83.84C210.449 80.8534 209.638 76.8 209.638 71.68V38.528H198.502V27.648H209.638L211.174 11.52H222.438V27.648H240.742V38.528H222.438V71.808C222.438 75.4774 223.206 77.9947 224.742 79.36C226.278 80.64 228.923 81.28 232.678 81.28H240.102V92.16H229.606Z" fill="#161616"/>
<path d="M160.882 93.6961C155.591 93.6961 151.197 92.8001 147.698 91.0081C144.199 89.2161 141.597 86.8267 139.89 83.8401C138.183 80.7681 137.33 77.4827 137.33 73.9841C137.33 69.7174 138.439 66.0907 140.658 63.1041C142.877 60.0321 146.034 57.6854 150.13 56.0641C154.226 54.4427 159.133 53.6321 164.85 53.6321H181.618C181.618 49.8774 181.063 46.7627 179.954 44.2881C178.845 41.8134 177.181 39.9787 174.962 38.7841C172.829 37.5041 170.098 36.8641 166.77 36.8641C162.93 36.8641 159.645 37.8027 156.914 39.6801C154.183 41.4721 152.477 44.1601 151.794 47.7441H138.994C139.506 43.2214 141.042 39.3814 143.602 36.2241C146.247 32.9814 149.618 30.5067 153.714 28.8001C157.81 27.0081 162.162 26.1121 166.77 26.1121C172.829 26.1121 177.906 27.1787 182.002 29.3121C186.098 31.4454 189.17 34.4747 191.218 38.4001C193.351 42.2401 194.418 46.8481 194.418 52.2241V92.1601H183.282L182.258 81.2801C181.319 82.9867 180.21 84.6081 178.93 86.1441C177.65 87.6801 176.114 89.0027 174.322 90.1121C172.615 91.2214 170.61 92.0747 168.306 92.6721C166.087 93.3547 163.613 93.6961 160.882 93.6961ZM163.314 83.3281C166.045 83.3281 168.519 82.7734 170.738 81.6641C172.957 80.5547 174.834 79.0614 176.37 77.1841C177.991 75.2214 179.186 73.0454 179.954 70.6561C180.807 68.1814 181.277 65.6641 181.362 63.1041V62.7201H166.13C162.461 62.7201 159.474 63.1894 157.17 64.1281C154.951 64.9814 153.33 66.1761 152.306 67.7121C151.282 69.2481 150.77 71.0401 150.77 73.0881C150.77 75.2214 151.239 77.0561 152.178 78.5921C153.202 80.0427 154.653 81.1947 156.53 82.0481C158.407 82.9014 160.669 83.3281 163.314 83.3281Z" fill="#161616"/>
<path d="M70.6562 92.16V0L83.4563 0V38.144C85.5896 34.3893 88.5336 31.4453 92.2883 29.312C96.1283 27.1787 100.352 26.112 104.96 26.112C110.08 26.112 114.475 27.1787 118.144 29.312C121.814 31.36 124.63 34.4747 126.592 38.656C128.555 42.752 129.536 47.9147 129.536 54.144V92.16H116.864V55.424C116.864 49.4507 115.584 44.928 113.024 41.856C110.464 38.6987 106.667 37.12 101.632 37.12C98.2189 37.12 95.1469 37.9307 92.4162 39.552C89.6856 41.1733 87.5096 43.5627 85.8882 46.72C84.2669 49.792 83.4563 53.5467 83.4563 57.984V92.16H70.6562Z" fill="#161616"/>
<path d="M32.256 93.6961C26.0267 93.6961 20.48 92.2881 15.616 89.4721C10.752 86.5707 6.912 82.6027 4.096 77.5681C1.36533 72.5334 0 66.6881 0 60.0321C0 53.2907 1.36533 47.4027 4.096 42.3681C6.912 37.2481 10.752 33.2801 15.616 30.4641C20.48 27.5627 26.0267 26.1121 32.256 26.1121C40.1067 26.1121 46.6773 28.1601 51.968 32.2561C57.2587 36.3521 60.6293 41.8987 62.08 48.8961H48.768C47.9147 45.1414 45.952 42.2401 42.88 40.1921C39.8933 38.1441 36.3093 37.1201 32.128 37.1201C28.7147 37.1201 25.5573 38.0161 22.656 39.8081C19.7547 41.5147 17.408 44.0747 15.616 47.4881C13.9093 50.8161 13.056 54.9547 13.056 59.9041C13.056 63.5734 13.568 66.8587 14.592 69.7601C15.616 72.5761 16.9813 74.9654 18.688 76.9281C20.48 78.8907 22.528 80.3841 24.832 81.4081C27.136 82.3467 29.568 82.8161 32.128 82.8161C34.944 82.8161 37.4613 82.3894 39.68 81.5361C41.984 80.5974 43.904 79.2321 45.44 77.4401C47.0613 75.6481 48.1707 73.5147 48.768 71.0401H62.08C60.6293 77.8667 57.2587 83.3707 51.968 87.5521C46.6773 91.6481 40.1067 93.6961 32.256 93.6961Z" fill="#161616"/>
</svg>